<svg xmlns="http://www.w3.org/2000/svg" viewBox="0 0 31.75 31.75"><defs><style>.cls-1{fill:#ff5086;}.cls-2{fill:#fff;}</style></defs><g id="圖層_2" data-name="圖層 2"><g id="圖層_3" data-name="圖層 3"><circle class="cls-1" cx="15.87" cy="15.87" r="15.87"/><circle class="cls-2" cx="15.87" cy="15.87" r="14.33"/><path class="cls-1" d="M5.89,19.21H8V13H6.22V11.76a6.44,6.44,0,0,0,2.3-.83H10v8.28h1.86V20.8H5.89Z"/><path class="cls-1" d="M13.28,18.35A2.88,2.88,0,0,1,15,15.77v-.06a2.82,2.82,0,0,1-1.3-2.35c0-1.59,1.25-2.6,3-2.6a2.59,2.59,0,0,1,2.87,2.63,2.89,2.89,0,0,1-1.27,2.25v.07a2.85,2.85,0,0,1,1.65,2.64c0,1.49-1.32,2.64-3.32,2.64S13.28,19.89,13.28,18.35Zm4.79-.07c0-1-.91-1.45-2.19-2A2.37,2.37,0,0,0,15,18.13a1.52,1.52,0,0,0,1.66,1.47A1.3,1.3,0,0,0,18.07,18.28Zm-.16-4.77a1.26,1.26,0,0,0-1.31-1.38,1.15,1.15,0,0,0-1.2,1.23c0,.93.76,1.39,1.8,1.8A2.38,2.38,0,0,0,17.91,13.51Z"/><path class="cls-1" d="M23.71,16.51H21V15.12h2.7V12.28h1.45v2.84h2.69v1.39H25.16v2.84H23.71Z"/></g></g></svg>