<svg id="圖層_1" data-name="圖層 1" xmlns="http://www.w3.org/2000/svg" viewBox="0 0 116.55 86.1"><title>Andriod</title><path d="M3,79.32A16,16,0,0,0,16,86.1h84.6a16,16,0,0,0,16-16V16a16,16,0,0,0-16-16H81.18A235.61,235.61,0,0,0,3,79.32Z" style="fill:#f979fd"/><path d="M81.18,0H16A16,16,0,0,0,0,16V70.13A15.86,15.86,0,0,0,3,79.32,235.61,235.61,0,0,1,81.18,0Z" style="fill:#d662dd"/><path d="M113.61,6.78a15.93,15.93,0,0,0-13-6.78H16A16,16,0,0,0,0,16V70.13a16,16,0,0,0,16,16H35.38A235.8,235.8,0,0,0,113.61,6.78Z" style="fill:#f979fd"/><path d="M35.38,86.1h65.18a16,16,0,0,0,16-16V16a15.9,15.9,0,0,0-2.92-9.19A235.8,235.8,0,0,1,35.38,86.1Z" style="fill:#d662dd"/><path d="M24.86,58.84h2.92l4,12.46H29.18l-.87-3.2h-4l-.88,3.2H20.87Zm-.05,7.33h3l-.37-1.36c-.39-1.3-.73-2.73-1.08-4.07h-.08c-.32,1.36-.69,2.77-1.06,4.07Z" style="fill:#f6f5ee"/><path d="M34.72,61.88h2l.19,1.25h0A4.32,4.32,0,0,1,40,61.65c2,0,2.91,1.41,2.91,3.78V71.3H40.47V65.73c0-1.46-.4-2-1.32-2a2.63,2.63,0,0,0-1.95,1.06V71.3H34.72Z" style="fill:#f6f5ee"/><path d="M46.64,66.59c0-3.06,1.92-4.94,4-4.94a3.24,3.24,0,0,1,2.39,1l-.08-1.48V57.88h2.45V71.3h-2l-.18-1H53.1a3.87,3.87,0,0,1-2.61,1.21C48.16,71.53,46.64,69.69,46.64,66.59Zm6.26,1.93V64.39a2.55,2.55,0,0,0-1.77-.71c-1.06,0-2,1-2,2.89s.71,2.93,2,2.93A2.15,2.15,0,0,0,52.9,68.52Z" style="fill:#f6f5ee"/><path d="M59.69,61.88h2l.19,1.67h0a3.26,3.26,0,0,1,2.67-1.9,2.62,2.62,0,0,1,1.11.2L65.3,64a3.12,3.12,0,0,0-1-.15c-.74,0-1.63.49-2.15,1.85V71.3H59.69Z" style="fill:#f6f5ee"/><path d="M67.91,66.59a4.54,4.54,0,1,1,9,0,4.54,4.54,0,1,1-9,0Zm6.52,0c0-1.76-.72-2.92-2-2.92s-2,1.16-2,2.92.72,2.93,2,2.93S74.43,68.37,74.43,66.59Z" style="fill:#f6f5ee"/><path d="M80.5,59a1.44,1.44,0,1,1,1.44,1.36A1.32,1.32,0,0,1,80.5,59Zm.2,2.87h2.47V71.3H80.7Z" style="fill:#f6f5ee"/><path d="M87,66.59c0-3.06,1.92-4.94,4-4.94a3.24,3.24,0,0,1,2.39,1l-.09-1.48V57.88h2.46V71.3h-2l-.19-1h-.06a3.87,3.87,0,0,1-2.61,1.21C88.46,71.53,87,69.69,87,66.59Zm6.25,1.93V64.39a2.53,2.53,0,0,0-1.76-.71c-1.06,0-2,1-2,2.89s.71,2.93,2,2.93A2.12,2.12,0,0,0,93.2,68.52Z" style="fill:#f6f5ee"/><path d="M58.83,28h9.78c.46,0,.57.13.57.57q0,7.55,0,15.1c0,.44-.11.59-.57.58-1,0-2,0-3.07,0-.45,0-.61.09-.6.58,0,1.51,0,3,0,4.53a2.32,2.32,0,0,1-2.26,2.33,2.28,2.28,0,0,1-2.32-2.26c0-1.56,0-3.12,0-4.68,0-.37-.09-.52-.49-.5a3.15,3.15,0,0,1-1.06-.05c-.28-.23-.23-.56-.24-.86,0-1.94,0-3.89,0-5.83V29c0-.33-.06-.69.23-1Z" style="fill:#e4e4e4"/><path d="M58.8,28.08q0,8.06,0,16.11c-.41,0-.81,0-1.22,0s-.45.12-.45.47c0,1.45,0,2.92,0,4.37a2.35,2.35,0,0,1-3.41,2.34A2.55,2.55,0,0,1,52.55,49c.05-1.44,0-2.89,0-4.33,0-.35-.12-.44-.45-.43-1.22,0-2.44,0-3.65,0h0q0-7.83,0-15.64c0-.35.07-.49.45-.49Z" style="fill:#fdfdfd"/><path d="M44.49,40.66a2.57,2.57,0,0,1-1.43-2.59c0-3,0-6,0-9a2.32,2.32,0,0,1,4.33-1.36,1.52,1.52,0,0,1,.52,1.21c0,3.16,0,6.33,0,9.49a2.47,2.47,0,0,1-1.48,2.39A1.67,1.67,0,0,1,44.49,40.66Z" style="fill:#fdfdfd"/><path d="M74.52,33.68c0,1.67.06,3.34,0,5A2.28,2.28,0,0,1,70,38.43c0-3.18,0-6.37,0-9.55a2.3,2.3,0,0,1,4.5-.7,3.48,3.48,0,0,1,.09,1v4.54Z" style="fill:#e4e4e4"/><path d="M68.72,23.7a10.21,10.21,0,0,0-3.9-5.26c-.2-.14-.34-.26-.16-.54.52-.82,1-1.66,1.53-2.49a6.55,6.55,0,0,0-1.08-.72c-.26-.2-.43-.17-.61.14-.41.73-.88,1.43-1.28,2.17-.19.33-.37.36-.69.21A7.17,7.17,0,0,0,61,16.75a7.39,7.39,0,0,0-2.25-.17.93.93,0,0,1,.11.61c0,2.88,0,5.75,0,8.62,0,.51-.17.64-.65.63-3.2,0-6.39,0-9.59,0h0a.17.17,0,0,0,0,.1H68.93c.24,0,.31-.1.29-.33A11.88,11.88,0,0,0,68.72,23.7Zm-5.31-1.16a1,1,0,0,1-1-1,1,1,0,1,1,2,.06A1,1,0,0,1,63.41,22.54Z" style="fill:#e4e4e4"/><path d="M49.48,26.21H58a.58.58,0,0,0,.61-.62c0-.19,0-.39,0-.58V17.54a2.24,2.24,0,0,1,.13-1,10.87,10.87,0,0,0-3.2.51c-.62,0-.93-.37-1.21-.87a8.73,8.73,0,0,0-1.06-1.38c-.17-.3-.37-.35-.65-.11a2.42,2.42,0,0,1-.58.35c-.37.16-.45.35-.2.72.44.64.8,1.33,1.23,2,.19.29.19.46-.13.68A9.54,9.54,0,0,0,50,21.53a9.38,9.38,0,0,0-1.45,4.91h0C48.82,26.14,49.16,26.21,49.48,26.21Zm4.72-5.72a1,1,0,1,1-1.06,1A1,1,0,0,1,54.2,20.49Z" style="fill:#fdfdfd"/><path d="M58.82,25.81c0-2.87,0-5.74,0-8.62a.93.93,0,0,0-.11-.61,2.24,2.24,0,0,0-.13,1V25c0,.19,0,.39,0,.58a.58.58,0,0,1-.61.62H49.48c-.32,0-.66-.07-.9.23,3.2,0,6.39,0,9.59,0C58.65,26.45,58.83,26.32,58.82,25.81Z" style="fill:#fdfdfd"/></svg>