<svg id="圖層_1" data-name="圖層 1" xmlns="http://www.w3.org/2000/svg" viewBox="0 0 116.55 89.08"><title>BUY 有文字</title><path d="M3,79.32A16,16,0,0,0,16,86.1h84.6a16,16,0,0,0,16-16V16a16,16,0,0,0-16-16H81.18A235.61,235.61,0,0,0,3,79.32Z" style="fill:#f979fd"/><path d="M81.18,0H16A16,16,0,0,0,0,16V70.13A15.86,15.86,0,0,0,3,79.32,235.61,235.61,0,0,1,81.18,0Z" style="fill:#d662dd"/><path d="M113.61,6.78a15.93,15.93,0,0,0-13-6.78H16A16,16,0,0,0,0,16V70.13a16,16,0,0,0,16,16H35.38A235.8,235.8,0,0,0,113.61,6.78Z" style="fill:#f979fd"/><path d="M35.38,86.1h65.18a16,16,0,0,0,16-16V16a15.9,15.9,0,0,0-2.92-9.19A235.8,235.8,0,0,1,35.38,86.1Z" style="fill:#d662dd"/><text transform="translate(40.14 71.3)" style="font-size:17px;fill:#f6f5ee;font-family:NotoSansCJKtc-Bold-B5pc-H, Noto Sans CJK TC;letter-spacing:0.07996323529411764em">Buy</text><path d="M50.29,45.36a3.93,3.93,0,1,0,3.93,3.93,3.92,3.92,0,0,0-3.93-3.93ZM38.5,15.87a2,2,0,0,0,2,2h2l7.08,14.92-2.66,4.8a3.94,3.94,0,0,0,3.44,5.84H71.92a2,2,0,0,0,0-3.93H50.29l2.17-3.93H67.1a3.91,3.91,0,0,0,3.44-2l7-12.76a2,2,0,0,0-1.71-2.91H46.78L45.45,15a1.94,1.94,0,0,0-1.76-1.12H40.46a2,2,0,0,0-2,2ZM70,45.36a3.93,3.93,0,1,0,3.93,3.93A3.91,3.91,0,0,0,70,45.36Zm0,0" style="fill:#fdfdfd"/><g id="圖層_3" data-name="圖層 3"><path d="M73.9,41.42a2,2,0,0,0-2-2H58.36v3.93H71.94A2,2,0,0,0,73.9,41.42Z" style="fill:#bcc1d0"/><path d="M70,53.22a3.94,3.94,0,1,0-3.91-3.93A3.94,3.94,0,0,0,70,53.22Z" style="fill:#bcc1d0"/><path d="M75.89,17.83H58.36v17.7h8.76a3.91,3.91,0,0,0,3.44-2l7-12.76A2,2,0,0,0,75.89,17.83Z" style="fill:#bcc1d0"/></g></svg>