<svg xmlns="http://www.w3.org/2000/svg" viewBox="0 0 116.6 86.13"><title>BUY 無文字</title><g id="圖層_1" data-name="圖層 1"><path d="M3,79.32A16,16,0,0,0,16,86.1h84.6a16,16,0,0,0,16-16V16a16,16,0,0,0-16-16H81.18A235.64,235.64,0,0,0,3,79.32Z" style="fill:#f979fd"/><path d="M81.18,0H16A16,16,0,0,0,0,16V70.13a15.89,15.89,0,0,0,3,9.19A235.64,235.64,0,0,1,81.18,0Z" style="fill:#d662dd"/><path d="M113.61,6.78a15.91,15.91,0,0,0-13-6.78H16A16,16,0,0,0,0,16V70.13a16,16,0,0,0,16,16H35.38A235.78,235.78,0,0,0,113.61,6.78Z" style="fill:#f979fd"/><path d="M35.38,86.1h65.18a16,16,0,0,0,16-16V16a15.93,15.93,0,0,0-2.92-9.19A235.79,235.79,0,0,1,35.38,86.1Z" style="fill:#d662dd"/></g><g id="圖層_2" data-name="圖層 2"><path d="M50.4,45.8a3.94,3.94,0,1,0,3.93,3.94A3.92,3.92,0,0,0,50.4,45.8ZM38.6,16.32a2,2,0,0,0,2,2h2L49.61,33.2,47,38a3.94,3.94,0,0,0,3.44,5.84H72a2,2,0,1,0,0-3.93H50.4L52.56,36H67.21a3.92,3.92,0,0,0,3.44-2l7-12.76A2,2,0,0,0,76,18.28H46.88l-1.32-2.81a2,2,0,0,0-1.77-1.12H40.57a2,2,0,0,0-2,2ZM70.05,45.8A3.94,3.94,0,1,0,74,49.74a3.92,3.92,0,0,0-3.94-3.94Zm0,0" style="fill:#fdfdfd"/><path d="M74,41.87a2,2,0,0,0-2-2H58.47v3.93H72A2,2,0,0,0,74,41.87Z" style="fill:#bcc1d0"/><path d="M70.07,53.67a3.94,3.94,0,1,0-3.91-3.93A3.94,3.94,0,0,0,70.07,53.67Z" style="fill:#bcc1d0"/><path d="M76,18.28H58.47V36h8.75a3.89,3.89,0,0,0,3.44-2l7-12.76A2,2,0,0,0,76,18.28Z" style="fill:#bcc1d0"/></g></svg>