<svg xmlns="http://www.w3.org/2000/svg" viewBox="0 0 55.99 43.91"><g id="圖層_2" data-name="圖層 2"><g id="圖層_3" data-name="圖層 3"><path d="M28,7c-.67,0-1,.47-1.2,1l0,.05L22.34,17a1.5,1.5,0,0,1-1.79.95,2.79,2.79,0,0,1-.91-.53l-14-10A1.18,1.18,0,0,0,3.73,8.66L9.79,38.77a2.57,2.57,0,0,0,2.85,2.34H28V7Z" fill="#c98343"/><path d="M51.34,7.07a1.44,1.44,0,0,0-1.06.39l-14.07,10a1.52,1.52,0,0,1-2.56-.62c-.47-.94-.95-1.88-1.41-2.82-1-2-2-4.05-3-6.09C29,7.45,28.66,7,28,7V41.11H43.53a2.55,2.55,0,0,0,2.68-2.22q1.95-9.8,3.92-19.59,1.07-5.35,2.15-10.69A1.19,1.19,0,0,0,51.34,7.07Z" fill="#bc6d1e"/><rect x="9.79" y="38.77" width="36.3" height="5.14" fill="#f09537"/><circle cx="28" cy="3.68" r="3.68" fill="#f09537"/><circle cx="3.68" cy="5.09" r="3.68" fill="#f09537"/><circle cx="52.31" cy="5.09" r="3.68" fill="#f09537"/><path d="M22.73,33.24l1.38-1.85a4.69,4.69,0,0,0,3.28,1.51c1.5,0,2.51-.72,2.51-1.95,0-1.4-.85-2.26-4.06-2.26V26.58c2.71,0,3.59-.89,3.59-2.13s-.72-1.77-2-1.77A4,4,0,0,0,24.66,24L23.17,22.2a6.54,6.54,0,0,1,4.42-1.84c2.85,0,4.79,1.4,4.79,3.87a3.42,3.42,0,0,1-2.46,3.25v.1a3.61,3.61,0,0,1,2.93,3.55c0,2.63-2.37,4.16-5.18,4.16A6.29,6.29,0,0,1,22.73,33.24Z" fill="#fff"/></g></g></svg>