<svg id="圖層_1" data-name="圖層 1" xmlns="http://www.w3.org/2000/svg" viewBox="0 0 116.55 89.08"><title>Download 有文字</title><path d="M3,79.32A16,16,0,0,0,16,86.1h84.6a16,16,0,0,0,16-16V16a16,16,0,0,0-16-16H81.18A235.61,235.61,0,0,0,3,79.32Z" style="fill:#f979fd"/><path d="M81.18,0H16A16,16,0,0,0,0,16V70.13A15.86,15.86,0,0,0,3,79.32,235.61,235.61,0,0,1,81.18,0Z" style="fill:#d662dd"/><path d="M113.61,6.78a15.93,15.93,0,0,0-13-6.78H16A16,16,0,0,0,0,16V70.13a16,16,0,0,0,16,16H35.38A235.8,235.8,0,0,0,113.61,6.78Z" style="fill:#f979fd"/><path d="M35.38,86.1h65.18a16,16,0,0,0,16-16V16a15.9,15.9,0,0,0-2.92-9.19A235.8,235.8,0,0,1,35.38,86.1Z" style="fill:#d662dd"/><text transform="translate(10.34 71.3)" style="font-size:17px;fill:#f6f5ee;font-family:NotoSansCJKtc-Bold-B5pc-H, Noto Sans CJK TC;letter-spacing:0.08002068014705882em">D<tspan x="13.5" y="0" style="letter-spacing:0.07197840073529412em">o</tspan><tspan x="25.36" y="0">wnl</tspan><tspan x="60.37" y="0" style="letter-spacing:0.06600413602941177em">o</tspan><tspan x="72.13" y="0" style="letter-spacing:0.07996323529411764em">ad</tspan></text><path d="M75.43,37.54a1.92,1.92,0,0,0-1.92,1.92v7.68a1.92,1.92,0,0,1-1.92,1.92H44.73a1.92,1.92,0,0,1-1.92-1.92V39.46a1.92,1.92,0,1,0-3.83,0v7.68a5.74,5.74,0,0,0,5.75,5.75H71.59a5.75,5.75,0,0,0,5.76-5.75V39.46A1.92,1.92,0,0,0,75.43,37.54ZM56.8,40.83a2,2,0,0,0,.63.4,1.85,1.85,0,0,0,1.46,0,1.88,1.88,0,0,0,.63-.4l7.68-7.68a1.92,1.92,0,0,0-2.72-2.72l-4.4,4.41V16.44a1.92,1.92,0,1,0-3.84,0v18.4l-4.39-4.41a1.92,1.92,0,0,0-2.72,2.72Z" style="fill:#fdfdfd"/><path d="M58.51,14.54V41.36a2.09,2.09,0,0,0,.49-.13,2,2,0,0,0,.63-.4l7.67-7.68a1.92,1.92,0,0,0-2.72-2.72l-4.4,4.41V16.44A1.92,1.92,0,0,0,58.51,14.54Z" style="fill:#e7ebf3"/><path d="M75.53,37.54a1.91,1.91,0,0,0-1.91,1.92v7.68a1.92,1.92,0,0,1-1.92,1.92H58.51v3.83H71.7a5.74,5.74,0,0,0,5.75-5.75V39.46A1.92,1.92,0,0,0,75.53,37.54Z" style="fill:#e7ebf3"/></svg>