<?xml version="1.0" encoding="utf-8"?>
<!-- Generator: Adobe Illustrator 24.0.0, SVG Export Plug-In . SVG Version: 6.00 Build 0)  -->
<svg version="1.1" xmlns="http://www.w3.org/2000/svg" xmlns:xlink="http://www.w3.org/1999/xlink" x="0px" y="0px"
	 viewBox="0 0 116.6 86.1" style="enable-background:new 0 0 116.6 86.1;" xml:space="preserve">
<style type="text/css">
	.st0{fill:#F979FD;}
	.st1{fill:#D662DD;}
	.st2{display:none;}
	.st3{display:inline;}
	.st4{fill:#F6F5EE;}
	.st5{fill:#E4E4E4;}
	.st6{fill:#FDFDFD;}
	.st7{display:none;fill:#F6F5EE;}
	.st8{font-family:'NotoSansCJKtc-Bold-B5pc-H';}
	.st9{font-size:17px;}
	.st10{letter-spacing:1;}
	.st11{display:inline;fill:#FDFDFD;}
	.st12{display:inline;fill:#BCC1D0;}
	.st13{fill:#E7EBF3;}
</style>
<g id="圖層_1">
	<title>Andriod</title>
	<path class="st0" d="M3,79.3c3,4.2,7.8,6.8,13,6.8h84.6c8.8,0,16-7.2,16-16V16c0-8.8-7.2-16-16-16H81.2C49.2,19.8,22.3,47,3,79.3z"
		/>
	<path class="st1" d="M81.2,0H16C7.2,0,0,7.2,0,16v54.1c0,3.3,1.1,6.5,3,9.2C22.3,47,49.2,19.8,81.2,0z"/>
	<path class="st0" d="M113.6,6.8c-3-4.2-7.8-6.8-13-6.8H16C7.2,0,0,7.2,0,16v54.1c0,8.8,7.2,16,16,16h19.4
		C67.4,66.3,94.2,39.1,113.6,6.8z"/>
	<path class="st1" d="M35.4,86.1h65.2c8.8,0,16-7.2,16-16V16c0-3.3-1-6.5-2.9-9.2C94.3,39.1,67.4,66.3,35.4,86.1z"/>
</g>
<g id="圖層_3" class="st2">
	<g class="st3">
		<path class="st4" d="M24.8,58.8h2.9l4,12.5h-2.6L28.3,68h-4l-0.9,3.2h-2.6L24.8,58.8z M24.8,66.1h3l-0.4-1.4
			c-0.4-1.3-0.7-2.7-1.1-4.1h-0.1c-0.3,1.4-0.7,2.8-1.1,4.1L24.8,66.1z"/>
		<path class="st4" d="M34.7,61.8h2l0.2,1.3l0,0c0.8-0.9,1.9-1.4,3.1-1.5c2,0,2.9,1.4,2.9,3.8v5.9h-2.4v-5.6c0-1.5-0.4-2-1.3-2
			c-0.8,0-1.5,0.4-2,1.1v6.5h-2.5V61.8z"/>
		<path class="st4" d="M46.6,66.5c0-3.1,1.9-4.9,4-4.9c0.9,0,1.8,0.3,2.4,1l-0.1-1.5v-3.3h2.5v13.4h-2l-0.2-1h-0.1
			c-0.7,0.7-1.6,1.2-2.6,1.2C48.1,71.4,46.6,69.6,46.6,66.5z M52.9,68.4v-4.1c-0.5-0.5-1.1-0.7-1.8-0.7c-1.1,0-2,1-2,2.9
			s0.7,2.9,2,2.9C51.8,69.4,52.5,69,52.9,68.4z"/>
		<path class="st4" d="M59.6,61.8h2l0.2,1.7l0,0c0.5-1.1,1.5-1.8,2.7-1.9c0.4,0,0.8,0.1,1.1,0.2l-0.4,2.2c-0.3-0.1-0.7-0.2-1-0.2
			c-0.7,0-1.6,0.5-2.2,1.9v5.6h-2.5V61.8z"/>
		<path class="st4" d="M67.9,66.5c-0.3-2.5,1.4-4.8,3.9-5.1c2.5-0.3,4.8,1.4,5.1,3.9c0.1,0.4,0.1,0.8,0,1.2c0.3,2.5-1.4,4.8-3.9,5.1
			c-2.5,0.3-4.8-1.4-5.1-3.9C67.8,67.3,67.8,66.9,67.9,66.5z M74.4,66.5c0-1.8-0.7-2.9-2-2.9s-2,1.2-2,2.9s0.7,2.9,2,2.9
			S74.4,68.3,74.4,66.5z"/>
		<path class="st4" d="M80.5,58.9c0-0.8,0.6-1.5,1.4-1.5c0.8,0,1.5,0.6,1.5,1.4c0,0.8-0.6,1.5-1.4,1.5c0,0-0.1,0-0.1,0
			c-0.7,0.1-1.4-0.5-1.4-1.2C80.5,59,80.5,59,80.5,58.9z M80.7,61.8h2.5v9.4h-2.5V61.8z"/>
		<path class="st4" d="M87,66.5c0-3.1,1.9-4.9,4-4.9c0.9,0,1.8,0.3,2.4,1l-0.1-1.5v-3.3h2.5v13.4h-2l-0.2-1h-0.1
			c-0.7,0.7-1.6,1.2-2.6,1.2C88.4,71.4,87,69.6,87,66.5z M93.2,68.4v-4.1c-0.5-0.5-1.1-0.7-1.8-0.7c-1.1,0-2,1-2,2.9s0.7,2.9,2,2.9
			C92.1,69.4,92.8,69,93.2,68.4L93.2,68.4z"/>
		<path class="st5" d="M58.8,27.9h9.8c0.5,0,0.6,0.1,0.6,0.6c0,5,0,10.1,0,15.1c0,0.4-0.1,0.6-0.6,0.6c-1,0-2,0-3.1,0
			c-0.4,0-0.6,0.1-0.6,0.6c0,1.5,0,3,0,4.5c0,1.3-1,2.3-2.3,2.3c-1.3,0-2.3-1-2.3-2.2c0,0,0,0,0,0c0-1.6,0-3.1,0-4.7
			c0-0.4-0.1-0.5-0.5-0.5c-0.4,0-0.7,0-1.1,0c-0.3-0.2-0.2-0.6-0.2-0.9c0-1.9,0-3.9,0-5.8v-8.5C58.5,28.6,58.5,28.2,58.8,27.9
			L58.8,27.9z"/>
		<path class="st6" d="M58.8,28c0,5.4,0,10.7,0,16.1c-0.4,0-0.8,0-1.2,0s-0.5,0.1-0.5,0.5c0,1.5,0,2.9,0,4.4
			c0.1,1.3-0.8,2.4-2.1,2.6c-0.5,0-0.9,0-1.3-0.2c-0.8-0.5-1.3-1.4-1.2-2.4c0-1.4,0-2.9,0-4.3c0-0.3-0.1-0.4-0.5-0.4
			c-1.2,0-2.4,0-3.7,0l0,0c0-5.2,0-10.4,0-15.6c0-0.4,0.1-0.5,0.5-0.5L58.8,28z"/>
		<path class="st6" d="M44.5,40.6c-1-0.5-1.5-1.5-1.4-2.6c0-3,0-6,0-9c-0.1-1.3,0.8-2.4,2.1-2.5c0.9-0.1,1.8,0.4,2.2,1.2
			c0.3,0.3,0.5,0.7,0.5,1.2c0,3.2,0,6.3,0,9.5c0.1,1-0.5,2-1.5,2.4C45.8,41.1,45,41,44.5,40.6z"/>
		<path class="st5" d="M74.5,33.6c0,1.7,0.1,3.3,0,5c-0.2,1.2-1.4,2.1-2.6,1.8c-1-0.2-1.8-1-1.9-2.1c0-3.2,0-6.4,0-9.5
			c0-1.3,1-2.3,2.3-2.3c1,0,1.9,0.7,2.2,1.6c0.1,0.3,0.1,0.7,0.1,1L74.5,33.6L74.5,33.6z"/>
		<path class="st5" d="M68.7,23.6c-0.7-2.1-2.1-4-3.9-5.3c-0.2-0.1-0.3-0.3-0.2-0.5c0.5-0.8,1-1.7,1.5-2.5c-0.3-0.3-0.7-0.5-1.1-0.7
			c-0.3-0.2-0.4-0.2-0.6,0.1c-0.4,0.7-0.9,1.4-1.3,2.2c-0.2,0.3-0.4,0.4-0.7,0.2c-0.5-0.2-1-0.4-1.5-0.5c-0.7-0.2-1.5-0.2-2.3-0.2
			c0.1,0.2,0.1,0.4,0.1,0.6c0,2.9,0,5.8,0,8.6c0,0.5-0.2,0.6-0.7,0.6c-3.2,0-6.4,0-9.6,0l0,0c0,0,0,0.1,0,0.1h20.3
			c0.2,0,0.3-0.1,0.3-0.3C69.1,25.3,68.9,24.4,68.7,23.6z M63.4,22.5c-0.6,0-1-0.4-1-1c0-0.6,0.5-1,1-1c0.6,0,1,0.5,1,1
			C64.3,22,63.9,22.5,63.4,22.5z"/>
		<path class="st6" d="M49.4,26.1H58c0.3,0,0.6-0.2,0.6-0.5c0,0,0,0,0-0.1c0-0.2,0-0.4,0-0.6v-7.5c0-0.3,0-0.7,0.1-1
			c-1.1,0-2.2,0.2-3.2,0.5c-0.6,0-0.9-0.4-1.2-0.9c-0.3-0.5-0.7-1-1.1-1.4c-0.2-0.3-0.4-0.4-0.7-0.1c-0.2,0.1-0.4,0.3-0.6,0.4
			c-0.4,0.2-0.5,0.4-0.2,0.7c0.4,0.6,0.8,1.3,1.2,2c0.2,0.3,0.2,0.5-0.1,0.7c-1.2,0.8-2.2,1.9-2.9,3.1c-0.9,1.5-1.4,3.2-1.5,4.9l0,0
			C48.8,26.1,49.1,26.1,49.4,26.1z M54.2,20.4c0.6,0,1,0.5,0.9,1.1c0,0.6-0.5,1-1.1,0.9c-0.5,0-0.9-0.5-0.9-1
			C53.1,20.9,53.5,20.4,54.2,20.4C54.1,20.4,54.1,20.4,54.2,20.4z"/>
	</g>
</g>
<g id="圖層_2">
	<g>
		<text transform="matrix(1 0 0 1 10.2596 71.749)" class="st7 st8 st9 st10">Download</text>
		<g class="st2">
			<path class="st11" d="M50.4,45.8c-2.2,0-3.9,1.8-3.9,3.9c0,2.2,1.7,3.9,3.9,3.9c2.2,0,3.9-1.8,3.9-3.9
				C54.3,47.6,52.6,45.8,50.4,45.8L50.4,45.8z M38.6,16.3c0,1.1,0.9,2,2,2h2l7.1,14.9L47,38c-1.4,2.6,0.5,5.8,3.4,5.8H72
				c1.1,0,2-0.9,2-2c0-1.1-0.9-2-2-2H50.4l2.2-3.9h14.6c1.5,0,2.8-0.8,3.4-2l7-12.8c0.7-1.3-0.2-2.9-1.7-2.9H46.9l-1.3-2.8
				c-0.3-0.7-1-1.1-1.8-1.1h-3.2C39.5,14.4,38.6,15.2,38.6,16.3L38.6,16.3z M70.1,45.8c-2.2,0-3.9,1.8-3.9,3.9
				c0,2.2,1.7,3.9,3.9,3.9s3.9-1.8,3.9-3.9C74,47.6,72.2,45.8,70.1,45.8L70.1,45.8z M70.1,45.8"/>
		</g>
		<g class="st2">
			<path class="st12" d="M74,41.9c0-1.1-0.9-2-2-2H58.5v3.9H72C73.1,43.8,74,43,74,41.9z"/>
			<path class="st12" d="M70.1,53.7c2.2,0,3.9-1.8,3.9-3.9c0-2.2-1.8-3.9-3.9-3.9c-2.2,0-3.9,1.8-3.9,3.9
				C66.2,51.9,67.9,53.7,70.1,53.7z"/>
			<path class="st12" d="M76,18.3H58.5V36h8.8c1.5,0,2.8-0.8,3.4-2l7-12.8C78.4,19.9,77.5,18.3,76,18.3z"/>
		</g>
	</g>
	<g>
		<path class="st6" d="M75.5,38.2c-1.1,0-1.9,0.9-1.9,1.9v7.7c0,1.1-0.9,1.9-1.9,1.9H44.8c-1.1,0-1.9-0.9-1.9-1.9v-7.7
			c0-1.1-0.9-1.9-1.9-1.9S39,39.1,39,40.1v7.7c0,3.2,2.6,5.8,5.8,5.8h26.9c3.2,0,5.8-2.6,5.8-5.8v-7.7
			C77.4,39.1,76.6,38.2,75.5,38.2z M56.9,41.5c0.2,0.2,0.4,0.3,0.6,0.4c0.5,0.2,1,0.2,1.5,0c0.2-0.1,0.5-0.2,0.6-0.4l7.7-7.7
			c0.8-0.8,0.8-2,0-2.7c-0.8-0.8-2-0.8-2.7,0l-4.4,4.4V17.1c0-1.1-0.9-1.9-1.9-1.9s-1.9,0.9-1.9,1.9v18.4l-4.4-4.4
			c-0.8-0.8-2-0.8-2.7,0c-0.8,0.8-0.8,2,0,2.7L56.9,41.5z"/>
		<g>
			<path class="st13" d="M58.6,15.2V42c0.2,0,0.3-0.1,0.5-0.1c0.2-0.1,0.5-0.2,0.6-0.4l7.7-7.7c0.8-0.8,0.8-2,0-2.7s-2-0.8-2.7,0
				l-4.4,4.4V17.1C60.2,16.1,59.5,15.3,58.6,15.2z"/>
			<path class="st13" d="M75.6,38.2c-1.1,0-1.9,0.9-1.9,1.9v7.7c0,1.1-0.9,1.9-1.9,1.9H58.6v3.8h13.2c3.2,0,5.8-2.6,5.8-5.8v-7.7
				C77.5,39.1,76.7,38.2,75.6,38.2z"/>
		</g>
	</g>
</g>
</svg>
