<svg xmlns="http://www.w3.org/2000/svg" viewBox="0 0 44.95 44.95"><defs><style>.cls-1{fill:#f9cfcf;}.cls-2{fill:#ff5086;}</style></defs><g id="圖層_2" data-name="圖層 2"><g id="圖層_3" data-name="圖層 3"><circle class="cls-1" cx="22.48" cy="22.48" r="22.48"/><path class="cls-2" d="M28.4,18.31c-.15,1.3-.28,2.59-.4,3.89,0,.26-.13.29-.35.29-.94,0-1.89,0-2.83,0-.35,0-.45.06-.45.43,0,4,0,7.94,0,11.91,0,.35-.08.45-.44.44-1.5,0-3,0-4.51,0-.31,0-.38-.1-.38-.39q0-3,0-6c0-2,0-4,0-6,0-.28-.06-.37-.34-.36-.63,0-1.27,0-1.9,0-.22,0-.28,0-.28-.28,0-1.32,0-2.63,0-3.95,0-.24.08-.29.29-.28.61,0,1.23,0,1.85,0,.29,0,.38-.07.38-.38a29.72,29.72,0,0,1,0-3.13c.31-3,2-4.64,5-4.76,1.32-.06,2.64,0,3.95,0,.24,0,.29.09.29.31q0,1.89,0,3.78c0,.25-.08.31-.32.31-.78,0-1.57,0-2.36,0s-1.29.39-1.3,1.27,0,1.52,0,2.28c0,.27.07.34.34.34,1.13,0,2.26,0,3.39,0C28.38,18,28.43,18.06,28.4,18.31Z"/></g></g></svg>