<svg xmlns="http://www.w3.org/2000/svg" viewBox="0 0 260.27 68.01"><defs><style>.cls-1{fill:none;stroke:#fff;stroke-miterlimit:10;}.cls-2{fill:#fff;}.cls-3{fill:#d8d8d9;}</style></defs><g id="圖層_2" data-name="圖層 2"><g id="圖層_1-2" data-name="圖層 1"><rect class="cls-1" x="0.5" y="0.5" width="259.27" height="67.01" rx="33.5"/><path class="cls-2" d="M36.49,32.19V51.57H29.42V19.11h8.82l9.53,21.47,9.52-21.47h8.82V51.57H58.9V32.09L50.09,51.57H45.25Z"/><path class="cls-2" d="M71.79,38.68V19.11h7.34V37.69c0,4.92,2.42,7.63,6.68,7.63s6.59-2.71,6.59-7.63V19.11h7.35V38.68c0,8.06-4.93,13.46-13.89,13.46S71.79,46.74,71.79,38.68Z"/><path class="cls-2" d="M112.82,40.58h0v11h-7.35V19.11h13.84c6.91,0,11.18,4.46,11.18,10.8,0,5.08-3.36,9.29-8.86,10.38l10.33,11.28h-9.57ZM112,25.16v10h6c3.68,0,5.92-2.08,5.92-5s-1.86-5-5.64-5Z"/><polygon class="cls-3" points="155.19 17.69 148.93 17.69 144.36 30.32 136.65 51.57 145.62 51.57 147.52 46.34 152.06 33.8 156.61 46.34 158.5 51.57 167.47 51.57 159.76 30.32 155.19 17.69"/><polygon class="cls-2" points="149.85 17.69 143.59 17.69 139.02 30.32 131.31 51.57 140.28 51.57 142.18 46.34 146.72 33.8 151.26 46.34 153.16 51.57 162.13 51.57 154.43 30.32 149.85 17.69"/><path class="cls-2" d="M120,30.16a2.8,2.8,0,1,1-2.79-2.79A2.79,2.79,0,0,1,120,30.16Z"/><path class="cls-2" d="M175.34,52.14h-5V47.08h5Z"/><path class="cls-2" d="M183.93,44v8.14h-5.41V28.22h10.2a8.17,8.17,0,0,1,6,2.2A7.71,7.71,0,0,1,197,36.18a7.45,7.45,0,0,1-1.77,4.94,8,8,0,0,1-4.76,2.71L198,52.14h-7Zm4-10.82h-4v6.39h3.81a4.07,4.07,0,0,0,2.76-.89,2.94,2.94,0,0,0,1-2.29,3.05,3.05,0,0,0-.93-2.32A3.65,3.65,0,0,0,187.91,33.18Z"/><path class="cls-2" d="M208.24,52.14h-5.31v-19h-2.79V28.22h8.1Z"/><path class="cls-2" d="M219.94,52.49a8.85,8.85,0,0,1-6.22-2.18,7.37,7.37,0,0,1-2.37-5.68,6.72,6.72,0,0,1,3.24-5.8,5.89,5.89,0,0,1-1.88-4.4,6.13,6.13,0,0,1,2-4.71,7.4,7.4,0,0,1,5.24-1.85,7.21,7.21,0,0,1,5.2,1.9,6.19,6.19,0,0,1,2,4.66,5.82,5.82,0,0,1-1.92,4.4,6.49,6.49,0,0,1,3.28,5.8,7.38,7.38,0,0,1-2.39,5.61A8.62,8.62,0,0,1,219.94,52.49Zm-2.71-5.15a4.07,4.07,0,0,0,5.41,0,3.53,3.53,0,0,0,1.07-2.64,3.39,3.39,0,0,0-1.07-2.55,4.13,4.13,0,0,0-5.41,0,3.38,3.38,0,0,0-1.06,2.55A3.52,3.52,0,0,0,217.23,47.34Zm2.71-10.29a2.59,2.59,0,0,0,1.92-.73,2.77,2.77,0,0,0,0-3.75,2.63,2.63,0,0,0-1.92-.72,2.67,2.67,0,0,0-2,.72,2.8,2.8,0,0,0,0,3.77A2.71,2.71,0,0,0,219.94,37.05Z"/></g></g></svg>