<svg xmlns="http://www.w3.org/2000/svg" viewBox="0 0 259.27 67.01"><defs><style>.cls-1{fill:#fff;}.cls-2{fill:#ff5187;}.cls-3{fill:#d8d8d9;}</style></defs><g id="圖層_2" data-name="圖層 2"><g id="圖層_1-2" data-name="圖層 1"><rect class="cls-1" width="259.27" height="67.01" rx="33.5"/><path class="cls-2" d="M36,31.69V51.07H28.92V18.61h8.82l9.53,21.47,9.52-21.47h8.82V51.07H58.4V31.59L49.59,51.07H44.75Z"/><path class="cls-2" d="M71.29,38.18V18.61h7.34V37.19c0,4.92,2.42,7.63,6.68,7.63s6.59-2.71,6.59-7.63V18.61h7.35V38.18c0,8.06-4.93,13.46-13.89,13.46S71.29,46.24,71.29,38.18Z"/><path class="cls-2" d="M112.32,40.08h0v11h-7.35V18.61h13.84c6.91,0,11.18,4.46,11.18,10.8,0,5.08-3.36,9.29-8.86,10.38l10.33,11.28h-9.57Zm-.85-15.42v10h6c3.68,0,5.92-2.08,5.92-5s-1.86-5-5.64-5Z"/><polygon class="cls-3" points="154.69 17.19 148.43 17.19 143.86 29.82 136.15 51.07 145.12 51.07 147.02 45.84 151.56 33.3 156.11 45.84 158 51.07 166.97 51.07 159.26 29.82 154.69 17.19"/><polygon class="cls-2" points="149.35 17.19 143.09 17.19 138.52 29.82 130.81 51.07 139.78 51.07 141.68 45.84 146.22 33.3 150.76 45.84 152.66 51.07 161.63 51.07 153.93 29.82 149.35 17.19"/><path class="cls-2" d="M119.52,29.66a2.8,2.8,0,1,1-2.79-2.79A2.79,2.79,0,0,1,119.52,29.66Z"/><path class="cls-2" d="M174.84,51.64h-5V46.58h5Z"/><path class="cls-2" d="M183.43,43.5v8.14H178V27.72h10.2a8.17,8.17,0,0,1,6,2.2,7.71,7.71,0,0,1,2.24,5.76,7.45,7.45,0,0,1-1.77,4.94,8,8,0,0,1-4.76,2.71l7.61,8.31h-7Zm4-10.82h-4v6.39h3.81a4.07,4.07,0,0,0,2.76-.89,2.94,2.94,0,0,0,1-2.29,3.05,3.05,0,0,0-.93-2.32A3.65,3.65,0,0,0,187.41,32.68Z"/><path class="cls-2" d="M207.74,51.64h-5.31v-19h-2.79V27.72h8.1Z"/><path class="cls-2" d="M219.44,52a8.85,8.85,0,0,1-6.22-2.18,7.37,7.37,0,0,1-2.37-5.68,6.72,6.72,0,0,1,3.24-5.8,5.89,5.89,0,0,1-1.88-4.4,6.13,6.13,0,0,1,2-4.71,7.4,7.4,0,0,1,5.24-1.85,7.21,7.21,0,0,1,5.2,1.9,6.19,6.19,0,0,1,2,4.66,5.82,5.82,0,0,1-1.92,4.4,6.49,6.49,0,0,1,3.28,5.8,7.38,7.38,0,0,1-2.39,5.61A8.62,8.62,0,0,1,219.44,52Zm-2.71-5.15a4.07,4.07,0,0,0,5.41,0,3.53,3.53,0,0,0,1.07-2.64,3.39,3.39,0,0,0-1.07-2.55,4.13,4.13,0,0,0-5.41,0,3.38,3.38,0,0,0-1.06,2.55A3.52,3.52,0,0,0,216.73,46.84Zm2.71-10.29a2.59,2.59,0,0,0,1.92-.73,2.77,2.77,0,0,0,0-3.75,2.63,2.63,0,0,0-1.92-.72,2.67,2.67,0,0,0-2,.72,2.8,2.8,0,0,0,0,3.77A2.71,2.71,0,0,0,219.44,36.55Z"/></g></g></svg>