<svg id="圖層_1" data-name="圖層 1" xmlns="http://www.w3.org/2000/svg" viewBox="0 0 39.34 39.3"><title>iOS</title><g id="圖層_1-2" data-name="圖層 1"><circle cx="19.84" cy="19.65" r="19.5" style="fill:#2d2c2a"/><path d="M39.14,17,24.27,6.15,13.71,30l8,9.21A19.55,19.55,0,0,0,39.14,17Z" style="fill:#0c0c0b"/><path d="M24.27,6.15h0L39.14,17A19.68,19.68,0,1,0,21.72,39.19L13.7,30Z" style="fill:#2d2c2a"/><path d="M19.71,29.61A4.83,4.83,0,0,0,18,30c-.45.18-.91.34-1.38.49A3.12,3.12,0,0,1,13.71,30a7.65,7.65,0,0,1-1.94-2.07,17,17,0,0,1-2.93-7.27,2.4,2.4,0,0,1,0-.28c0-.47-.1-.95-.09-1.22A9.83,9.83,0,0,1,9.94,14a5.55,5.55,0,0,1,6.4-2.77,17.49,17.49,0,0,1,1.76.46,4.38,4.38,0,0,0,1.32.24" style="fill:#fdfdfd"/><path d="M19.42,11.94a5,5,0,0,0,1.89-.32A8.69,8.69,0,0,1,25,11a6.07,6.07,0,0,1,4.16,2.35c.14.16,0,.22-.08.31A11.08,11.08,0,0,0,27.74,15a5.81,5.81,0,0,0,1.31,8.29c.12.08.25.15.38.22.59.3.59.3.34.95a16.07,16.07,0,0,1-2.44,4.23c-.16.2-.33.38-.5.56a3.57,3.57,0,0,1-4.16,1c-.49-.18-1-.33-1.5-.48a4.57,4.57,0,0,0-1.45-.2" style="fill:#e5e5e5"/><path d="M24.27,6.15a6.06,6.06,0,0,1-2.9,4.67,4.47,4.47,0,0,1-1.93.54c-.21,0-.27,0-.26-.25.14-2.72,1.41-5,4.45-5.77C24.26,5.17,24.28,5.19,24.27,6.15Z" style="fill:#e5e5e5"/><path d="M29.11,13.63" style="fill:#2d2c2a"/></g></svg>