<svg xmlns="http://www.w3.org/2000/svg" viewBox="0 0 39.34 39.31"><defs><style>.cls-1{fill:#0c0c0b;}.cls-2{fill:#2d2c2a;}.cls-3{fill:#fefefe;}.cls-4{fill:#e6e6e6;}</style></defs><g id="圖層_2" data-name="圖層 2"><g id="圖層_3" data-name="圖層 3"><path class="cls-1" d="M39.13,17,24.26,6.15,13.71,30l8,9.21A19.68,19.68,0,0,0,39.34,19.65,19.92,19.92,0,0,0,39.13,17Z"/><path class="cls-2" d="M24.26,6.15h0L39.13,17A19.67,19.67,0,1,0,21.72,39.2l-8-9.21Z"/><path class="cls-3" d="M19.71,29.61A5.41,5.41,0,0,0,18,30c-.45.17-.91.34-1.37.49A3.12,3.12,0,0,1,13.71,30a7.69,7.69,0,0,1-2-2.07,17.14,17.14,0,0,1-2.93-7.27l0-.27c0-.48-.1-.95-.09-1.22A9.91,9.91,0,0,1,9.94,14a5.53,5.53,0,0,1,6.4-2.77,18.16,18.16,0,0,1,1.76.45,4.73,4.73,0,0,0,1.32.25"/><path class="cls-4" d="M19.42,12a5,5,0,0,0,1.89-.32A8.4,8.4,0,0,1,25,11a6,6,0,0,1,4.16,2.36c.14.16,0,.22-.08.3A10.52,10.52,0,0,0,27.74,15a5.8,5.8,0,0,0,1.31,8.28,2.88,2.88,0,0,0,.38.22c.59.3.59.3.34.95a16.07,16.07,0,0,1-2.44,4.23c-.16.2-.33.38-.5.56a3.59,3.59,0,0,1-4.17,1c-.49-.18-1-.33-1.5-.48a4.59,4.59,0,0,0-1.45-.21"/><path class="cls-4" d="M24.26,6.15a6.09,6.09,0,0,1-2.89,4.68,4.51,4.51,0,0,1-1.93.54c-.21,0-.27,0-.26-.25.14-2.72,1.42-5,4.45-5.78C24.26,5.18,24.27,5.2,24.26,6.15Z"/></g></g></svg>