<svg id="圖層_1" data-name="圖層 1" xmlns="http://www.w3.org/2000/svg" viewBox="0 0 116.55 86.1"><title>iOS Download</title><path d="M3,79.32A16,16,0,0,0,16,86.1h84.6a16,16,0,0,0,16-16V16a16,16,0,0,0-16-16H81.18A235.61,235.61,0,0,0,3,79.32Z" style="fill:#f979fd"/><path d="M81.18,0H16A16,16,0,0,0,0,16V70.13A15.86,15.86,0,0,0,3,79.32,235.61,235.61,0,0,1,81.18,0Z" style="fill:#d662dd"/><path d="M113.61,6.78a15.93,15.93,0,0,0-13-6.78H16A16,16,0,0,0,0,16V70.13a16,16,0,0,0,16,16H35.38A235.8,235.8,0,0,0,113.61,6.78Z" style="fill:#f979fd"/><path d="M35.38,86.1h65.18a16,16,0,0,0,16-16V16a15.9,15.9,0,0,0-2.92-9.19A235.8,235.8,0,0,1,35.38,86.1Z" style="fill:#d662dd"/><path d="M43.71,59.14a1.44,1.44,0,1,1,1.44,1.36A1.33,1.33,0,0,1,43.71,59.14Zm.2,2.87h2.47v9.42H43.91Z" style="fill:#f6f5ee"/><path d="M50.28,65.16c0-4.06,2.27-6.41,5.56-6.41s5.57,2.37,5.57,6.41-2.27,6.5-5.57,6.5S50.28,69.19,50.28,65.16Zm8.59,0c0-2.68-1.18-4.27-3-4.27s-3,1.59-3,4.27,1.18,4.35,3,4.35S58.87,67.81,58.87,65.16Z" style="fill:#f6f5ee"/><path d="M64.7,69.85l1.43-1.72a4.87,4.87,0,0,0,3.16,1.38c1.3,0,2-.55,2-1.43s-.76-1.21-1.87-1.68l-1.67-.7a3.61,3.61,0,0,1-2.52-3.35c0-2,1.78-3.6,4.31-3.6a5.52,5.52,0,0,1,3.9,1.6l-1.26,1.56a4,4,0,0,0-2.64-1c-1.1,0-1.79.48-1.79,1.31s.88,1.21,1.94,1.63l1.63.69a3.43,3.43,0,0,1,2.5,3.38c0,2-1.69,3.76-4.57,3.76A6.63,6.63,0,0,1,64.7,69.85Z" style="fill:#f6f5ee"/><path d="M42.81,37.11a25.3,25.3,0,0,0,4.32,10.71,11.56,11.56,0,0,0,2.87,3,4.59,4.59,0,0,0,4.26.69c.68-.22,1.36-.47,2-.73a7.74,7.74,0,0,1,2.56-.52l-.43-26a7,7,0,0,1-1.94-.36,25.41,25.41,0,0,0-2.6-.67,8.17,8.17,0,0,0-9.43,4.08,14.49,14.49,0,0,0-1.8,7.57c0,.41.08,1.1.13,1.8C42.78,36.84,42.8,37,42.81,37.11Z" style="fill:#fdfdfd"/><path d="M61,50.61c.75.22,1.49.44,2.22.71a5.27,5.27,0,0,0,6.14-1.53c.25-.27.51-.54.74-.82a23.78,23.78,0,0,0,3.59-6.24c.37-1,.37-1-.5-1.4A3.5,3.5,0,0,1,72.6,41,8.56,8.56,0,0,1,70.68,28.8a15.42,15.42,0,0,1,2-2c.14-.12.32-.2.11-.45a8.89,8.89,0,0,0-6.12-3.47,12.64,12.64,0,0,0-5.47,1,7.38,7.38,0,0,1-2.79.47l.43,26A6.85,6.85,0,0,1,61,50.61Z" style="fill:#e5e5e5"/><path d="M58.44,23.42a6.4,6.4,0,0,0,2.84-.79,9,9,0,0,0,4.27-6.89c0-1.41,0-1.44-.94-1.19-4.46,1.19-6.34,4.5-6.55,8.51C58.05,23.37,58.13,23.46,58.44,23.42Z" style="fill:#e5e5e5"/><path d="M72.68,26.76" style="fill:#2d2c2a"/></svg>