<svg xmlns="http://www.w3.org/2000/svg" viewBox="0 0 214.32 44.44"><defs><style>.cls-1{fill:#d82e62;}.cls-2{fill:#f9cfcf;}.cls-3{fill:#fff;}.cls-4{fill:#3f3f3f;}.cls-5{fill:#ff5086;}</style></defs><g id="圖層_2" data-name="圖層 2"><g id="圖層_3" data-name="圖層 3"><polygon class="cls-1" points="156.7 0 148.89 0 143.18 16.01 133.56 42.96 144.76 42.96 147.12 36.33 152.79 20.43 158.47 36.33 160.83 42.96 172.03 42.96 162.41 16.01 156.7 0"/><polygon class="cls-2" points="150.03 0 142.23 0 136.51 16.01 126.9 42.96 138.09 42.96 140.46 36.33 146.13 20.43 151.8 36.33 154.17 42.96 165.36 42.96 155.75 16.01 150.03 0"/><path class="cls-2" d="M63,27V2.56h9.17V25.75c0,6.15,3,9.52,8.34,9.52s8.22-3.37,8.22-9.52V2.56h9.17V27c0,10.06-6.15,16.8-17.33,16.8C69.18,43.79,63,37.05,63,27Z"/><path class="cls-3" d="M138.64,37.39c3.42-5.39,2.64-15.59-6.07-16.59-4.55-.51-8.72,4.92-7.63,8.43.44,1.44,2.26,3.1,4.07,2.4s2.34-5.45,5.51-4.14a3.64,3.64,0,0,1,1.73,4.34,9,9,0,0,1-1.73,3.39A6.24,6.24,0,0,1,127.9,37c-3.9-1.3-4.71-3.26-8-8C126.81,27.64,131,22.38,131,16.05c0-7.93-5.33-13.49-14-13.49H99.78V43.08H109V29.36H109s6.12,10.1,11.27,12.57c6,2.87,13.4,3.07,18.24-4.36Z"/><path class="cls-3" d="M122.67,21.75c0,2.65-3.36-1.25-8-1.25s-8.91,3.9-8.91,1.25.35-14,8.67-14C121.85,7.79,122.67,19.1,122.67,21.75Z"/><path class="cls-4" d="M122.06,24a6.33,6.33,0,0,1-2.43-.78,12,12,0,0,0-5-1.39,14.88,14.88,0,0,0-5.29,1.35,8.55,8.55,0,0,1-2.86.82,1.93,1.93,0,0,1-1.53-.65,2.29,2.29,0,0,1-.52-1.56c0-9.55,3.73-15.25,10-15.25C122,6.5,124,16.09,124,21.75A1.93,1.93,0,0,1,122.06,24ZM114.4,9.08c-6.39,0-7.31,8.15-7.37,12.18.4-.13.92-.34,1.37-.52a17.27,17.27,0,0,1,6.24-1.53,14.31,14.31,0,0,1,6.06,1.63l.66.29C121.25,18.58,120.41,9.08,114.4,9.08Z"/><path class="cls-4" d="M113.32,18a3.81,3.81,0,0,1-3.82,3.81c-2.1,0-3.77-.07-3.81-3.81a3.82,3.82,0,1,1,7.63,0Z"/><path class="cls-3" d="M204.69,43.14h-21.2a9.64,9.64,0,0,1-9.64-9.64h0a9.65,9.65,0,0,1,9.64-9.64h21.2a9.64,9.64,0,0,1,9.63,9.64h0A9.63,9.63,0,0,1,204.69,43.14Z"/><path class="cls-5" d="M183.9,37.12H186V30.88h-1.79V29.67a6.31,6.31,0,0,0,2.29-.83H188v8.28h1.85v1.59H183.9Z"/><path class="cls-5" d="M191.28,36.26a2.88,2.88,0,0,1,1.7-2.58v-.07a2.8,2.8,0,0,1-1.31-2.34c0-1.59,1.25-2.6,3-2.6a2.58,2.58,0,0,1,2.86,2.62,2.88,2.88,0,0,1-1.26,2.26v.06a2.9,2.9,0,0,1,1.65,2.65c0,1.49-1.32,2.64-3.32,2.64S191.28,37.8,191.28,36.26Zm4.79-.07c0-1-.9-1.46-2.19-2A2.39,2.39,0,0,0,193,36a1.51,1.51,0,0,0,1.65,1.47A1.29,1.29,0,0,0,196.07,36.19Zm-.16-4.78a1.25,1.25,0,0,0-1.3-1.37,1.15,1.15,0,0,0-1.21,1.23c0,.93.76,1.38,1.81,1.8A2.37,2.37,0,0,0,195.91,31.41Z"/><path class="cls-5" d="M201.71,34.41H199V33h2.69V30.19h1.46V33h2.69v1.38h-2.69v2.85h-1.46Z"/><path class="cls-2" d="M24.09,18.89V31l-8.82,12.1V2.56h11l11.89,26.8L50.06,2.56h11V43.08h-9V18.77l-11,24.31H35Z"/><path class="cls-2" d="M15.31,29.58c0,7.2-.84,11.23-5.36,11.14-2.9-.06-5.94-2.93-6.62-5.78-1.25-5.28,3.4-6.17,4.61-4.1,1.58,2.69,3.27,4.6,5.36,3,1.6-1.22.46-5.83-.84-7.29C9,22.63,1.58,24,.24,31.09s3.21,13,9.07,13.29c7.34.35,14.78-.56,14.78-13.4C24.09,19.89,15.31,29.58,15.31,29.58Z"/></g></g></svg>