<svg id="圖層_1" data-name="圖層 1" xmlns="http://www.w3.org/2000/svg" viewBox="0 0 116.55 86.1"><title>computer</title><path d="M3,79.32A16,16,0,0,0,16,86.1h84.6a16,16,0,0,0,16-16V16a16,16,0,0,0-16-16H81.18A235.61,235.61,0,0,0,3,79.32Z" style="fill:#f979fd"/><path d="M81.18,0H16A16,16,0,0,0,0,16V70.13A15.86,15.86,0,0,0,3,79.32,235.61,235.61,0,0,1,81.18,0Z" style="fill:#d662dd"/><path d="M113.61,6.78a15.93,15.93,0,0,0-13-6.78H16A16,16,0,0,0,0,16V70.13a16,16,0,0,0,16,16H35.38A235.8,235.8,0,0,0,113.61,6.78Z" style="fill:#f979fd"/><path d="M35.38,86.1h65.18a16,16,0,0,0,16-16V16a15.9,15.9,0,0,0-2.92-9.19A235.8,235.8,0,0,1,35.38,86.1Z" style="fill:#d662dd"/><path d="M33.49,64.06H31.66V60.27H38V59.6h-5.6V58.29H45.6V59.6H40v.67h6.49v3.79H44.52l-.35,1.19a26.16,26.16,0,0,0-3.88-.92l.38-1.13a23.59,23.59,0,0,1,3.79.79v-2.4h-.91l.6.85a16.83,16.83,0,0,1-3,.81l-.62-.94a19.45,19.45,0,0,0,2.3-.72H40v3.49H38V61.59H34.8a16.84,16.84,0,0,1,2.63.69l-.54,1.07A20.47,20.47,0,0,0,34,62.53l.47-.94h-.91v2.3c1-.12,2.44-.32,3.88-.54l.07,1.15L34,65.3Zm10.73,7.58c.86,0,1-.25,1.13-1.66A5.06,5.06,0,0,0,47,70.6c-.23,2-.79,2.56-2.62,2.56H40.86c-2.29,0-2.94-.48-2.94-2.22v0h-2.8v.72H33.21V65.5H44.86v5.39h-5v0c0,.6.2.7,1.21.7Zm-9.1-4.79v.76h2.8v-.76Zm2.8,2.69v-.76h-2.8v.76Zm5-2.69H39.83v.76h3.05Zm0,2.69v-.76H39.83v.76Z" style="fill:#f6f5ee"/><path d="M55.25,71.34c0,.86-.14,1.38-.64,1.66a4.38,4.38,0,0,1-2.29.36,6.68,6.68,0,0,0-.49-1.77c.62,0,1.25,0,1.47,0s.28-.07.28-.3V67.39c-.34.35-.69.7-1,1.06l-.48-1.15a19.74,19.74,0,0,1-1.17,6.17,6.54,6.54,0,0,0-1.35-1.12c.91-2.31,1-5.64,1-8.07v-6h4.71Zm-3.08-7.06c0,.72,0,1.53-.05,2.4.42-.28.92-.67,1.46-1.07V63.94l-.64.44a7.93,7.93,0,0,0-.77-1.16Zm0-4.21v2.1l.52-.33c.29.32.62.69.89,1V60.07Zm5.43,4.22a18.81,18.81,0,0,0-2.09-3.41,27.48,27.48,0,0,0,1.82-3.14l1.73.4c-.5.92-1.12,1.9-1.64,2.72a22.11,22.11,0,0,1,1.83,2.76Zm3.82-.3c-.2.32-.42.64-.64.94H65v8.39H63.1v-.59H57.82v.66H56V64.93h2.75a11.12,11.12,0,0,0,.53-1.33l1.17.22a17.54,17.54,0,0,0-2-3,25.63,25.63,0,0,0,1.77-3l1.73.42c-.51.85-1.09,1.76-1.62,2.54a16,16,0,0,1,1.82,2.57l-1.19.5Zm1.68,2.56H61.43l1.33.7a9.44,9.44,0,0,1-1.06,1.36c.52.43,1,.85,1.37,1.2l-1.13,1.11a11.6,11.6,0,0,0-1.35-1.23,11.43,11.43,0,0,1-1.8,1.3,5.6,5.6,0,0,0-1-1v1.18H63.1Zm-5.28,0v3.34a11.61,11.61,0,0,0,1.61-1.12c-.49-.36-.94-.69-1.39-1l1-1c.45.27.94.59,1.4.89a6.42,6.42,0,0,0,.9-1.17ZM63.75,64a16.42,16.42,0,0,0-2.23-3.18,26.14,26.14,0,0,0,1.83-3l1.77.42c-.51.84-1.1,1.75-1.63,2.51a19.45,19.45,0,0,1,1.9,2.49Z" style="fill:#f6f5ee"/><path d="M70.93,64.46c0,.42,0,.84,0,1.28h3.35v7.6H72.44V67.51h-1.6a15.07,15.07,0,0,1-1.39,6,8.8,8.8,0,0,0-1.38-1.21c1-2.08,1.09-5.34,1.09-7.8V57.82h1.77v4.79h1.65V58.17h1.8v6.19H70.93ZM83.47,63a17.68,17.68,0,0,1-2.1,6.53A8.52,8.52,0,0,0,84,71.66a7.48,7.48,0,0,0-1.36,1.65,9.27,9.27,0,0,1-2.46-2.09,10.06,10.06,0,0,1-2.55,2.2A7.85,7.85,0,0,0,76.56,72a7.21,7.21,0,0,1-.71,1.54,7.41,7.41,0,0,0-1.54-1.07c1.19-2.15,1.33-5.55,1.33-7.87V58.63h7.6v1.8H77.5v2.28h4.41l.33-.06ZM79,69.52a18.17,18.17,0,0,1-1.54-3.7,22.09,22.09,0,0,1-.81,5.82A8.39,8.39,0,0,0,79,69.52Zm-.17-5a16.72,16.72,0,0,0,1.28,3.23,13.74,13.74,0,0,0,1.16-3.23Z" style="fill:#f6f5ee"/><path d="M58.46,13.25l1.44,0h15A3,3,0,0,1,78,16.28V40.17a3,3,0,0,1-3,3.06H64.46a.73.73,0,0,1-.51.15H58.88a1,1,0,0,1-.34-.06.37.37,0,0,1-.15-.13,7.35,7.35,0,0,1,.06-3,1.56,1.56,0,0,1,.93-.13H73.92c.87,0,.87,0,.87-.89V17.29c0-.9,0-.9-.92-.9H59.38a1.53,1.53,0,0,1-.92-.13.57.57,0,0,1-.16-.41q0-1.1,0-2.19A.57.57,0,0,1,58.46,13.25Z" style="fill:#bcc1d0"/><path d="M58.46,13.25c0,1,0,2,0,3l-.06.08a1.8,1.8,0,0,1-.89.1H43c-.89,0-.89,0-.89.92V39.1c0,1,0,1,1,1H57.45a2.69,2.69,0,0,1,.85.06.29.29,0,0,1,.15.12c0,1,0,2,0,3a.8.8,0,0,1-.65.17H53.11a1,1,0,0,1-.67-.16H44.76a.54.54,0,0,1-.32.13,16.47,16.47,0,0,1-3,0,3.05,3.05,0,0,1-2.65-3.1q0-5.25,0-10.52,0-3,0-6c0-2.31,0-4.63,0-6.94a.8.8,0,0,1,.15-.56,3,3,0,0,1,3-3c5.45,0,10.91,0,16.37,0Z" style="fill:#fdfdfd"/><path d="M52.44,43.23h6l0,0a.7.7,0,0,1,.15.51c0,1.67,0,3.34,0,5a1,1,0,0,1-.07.39.32.32,0,0,1-.13.15,1.39,1.39,0,0,1-.64.09H53.15a1,1,0,0,1-.71-.16Z" style="fill:#e7ebf3"/><path d="M58.46,49.22v-6h6v6a.83.83,0,0,1-.66.17H59.11A.81.81,0,0,1,58.46,49.22Z" style="fill:#bcc1d0"/><path d="M58.46,49.22h9.05A1.46,1.46,0,0,1,69,50.71a1.44,1.44,0,0,1-1.4,1.51c-3,0-6.06,0-9.09,0a.33.33,0,0,1-.12-.21,14.11,14.11,0,0,1,0-2.6.32.32,0,0,1,.09-.17Z" style="fill:#dadfe9"/><path d="M58.44,49.23c0,1,0,2,0,3-3,0-6,0-9,0A1.47,1.47,0,0,1,48,50.72a1.49,1.49,0,0,1,1.49-1.49h9Z" style="fill:#fdfdfd"/><path d="M58.45,16.21l.6,0c5.1,0,10.2,0,15.3,0,.46,0,.61.08.61.59q0,11.42,0,22.84c0,.51-.15.59-.61.59-5.1,0-10.2,0-15.3,0l-.6,0v0a.87.87,0,0,1-.16-.66V16.91a.87.87,0,0,1,.16-.66Z" style="fill:#e7ebf3"/><path d="M58.45,16.25v24l-1.84,0c-4.69,0-9.37,0-14,0-.46,0-.62-.08-.62-.59q0-11.41,0-22.84c0-.44.08-.59.56-.59,5.17,0,10.33,0,15.5,0Z" style="fill:#e7ebf3"/></svg>