<svg id="圖層_1" data-name="圖層 1" xmlns="http://www.w3.org/2000/svg" viewBox="0 0 116.55 86.1"><title>Play</title><path d="M3,79.32A16,16,0,0,0,16,86.1h84.6a16,16,0,0,0,16-16V16a16,16,0,0,0-16-16H81.18A235.61,235.61,0,0,0,3,79.32Z" style="fill:#f979fd"/><path d="M81.18,0H16A16,16,0,0,0,0,16V70.13A15.86,15.86,0,0,0,3,79.32,235.61,235.61,0,0,1,81.18,0Z" style="fill:#d662dd"/><path d="M113.61,6.78a15.93,15.93,0,0,0-13-6.78H16A16,16,0,0,0,0,16V70.13a16,16,0,0,0,16,16H35.38A235.8,235.8,0,0,0,113.61,6.78Z" style="fill:#f979fd"/><path d="M35.38,86.1h65.18a16,16,0,0,0,16-16V16a15.9,15.9,0,0,0-2.92-9.19A235.8,235.8,0,0,1,35.38,86.1Z" style="fill:#d662dd"/><path d="M37.91,70.45v2H22.66v-2H30.9A43.16,43.16,0,0,0,33.07,63l2.27.44a69.07,69.07,0,0,1-2.27,7.05Zm-.7-8H23.42v-2h6.1a22.54,22.54,0,0,0-.81-2.69l2-.51a21.11,21.11,0,0,1,.9,2.68l-1.8.52h7.39ZM26.9,70a49.18,49.18,0,0,0-1.4-6.64l2-.49a56.62,56.62,0,0,1,1.53,6.58Z" style="fill:#f6f5ee"/><path d="M47.15,67a31.47,31.47,0,0,1,2.32,4.38l-1.86,1A12.68,12.68,0,0,0,47,70.9c-4,1.24-4.62,1.51-5.09,1.83a7.36,7.36,0,0,0-.78-2,1.27,1.27,0,0,0,.78-1.18V58.24H49v8.31H44v3.31l2.23-.64c-.27-.49-.54-1-.79-1.41ZM44,60v1.43h3V60Zm3,4.74V63.23H44v1.53ZM56,68c0,.91-.16,1.43-.73,1.77a4.91,4.91,0,0,1-2.39.34,6.9,6.9,0,0,0-.55-1.89,11.66,11.66,0,0,0,1.41,0c.2,0,.29-.07.29-.29V60.19H52V73.1H50V58.36h6Z" style="fill:#f6f5ee"/><path d="M64,65.67A17.44,17.44,0,0,1,63.19,69c1,1.83,2.88,2.07,5.7,2.08,1.8,0,4.56-.1,6.46-.28a5.55,5.55,0,0,0-.64,1.85c-1.75.1-3.89.15-5.85.15-3.11,0-5.08-.34-6.36-2.12a7.61,7.61,0,0,1-2,2.45,6.26,6.26,0,0,0-1.3-1.32A7.7,7.7,0,0,0,62,66.92H61a1.92,1.92,0,0,0-1,.25,11.07,11.07,0,0,0-.65-1.63A1.7,1.7,0,0,0,60.2,65a21.11,21.11,0,0,0,1.48-2.1H59.59V61.3h3.23l.25-.1,1.23.5c-.59.93-1.58,2.51-2.42,3.67h.91l.32-.05ZM61.81,61A23,23,0,0,0,60,58.26l1.53-.85A23.64,23.64,0,0,1,63.41,60Zm3.2.24h-1.3V59.57H66c-.13-.57-.33-1.31-.53-1.89l1.75-.32a18.13,18.13,0,0,1,.67,2.17l-.14,0h1.63v1a12.87,12.87,0,0,0,1.35-3.22l1.66.47a11.43,11.43,0,0,1-.45,1.32h3.2v1.63H71.16c-.17.35-.35.67-.54,1h3l.32-.1,1.06.82a18.32,18.32,0,0,1-1.87,2V65h2v1.58h-2v2c0,.79-.1,1.25-.66,1.52a4.78,4.78,0,0,1-2.16.3,5.15,5.15,0,0,0-.54-1.65c.6,0,1.22,0,1.41,0s.25,0,.25-.22v-2H69.55V65h1.86V64a6,6,0,0,0,.89-.86H70v-1a14,14,0,0,0-1.18-.89l.07-.08H66.59v1.31h2.7s0,.47,0,.69c-.15,4.45-.29,6.12-.69,6.66a1.36,1.36,0,0,1-1,.62,8.9,8.9,0,0,1-1.45,0,4.68,4.68,0,0,0-.42-1.6,7.67,7.67,0,0,0,1,0,.43.43,0,0,0,.42-.22c.21-.31.34-1.46.46-4.64h-1a10.78,10.78,0,0,1-1.9,6A5.77,5.77,0,0,0,63.46,69C64.85,67.15,65,64.44,65,62.63Z" style="fill:#f6f5ee"/><path d="M84.19,69.59c-2.12.57-4.38,1.14-6.09,1.6l-.4-1.94c.65-.12,1.44-.28,2.3-.47V65.3H78.18V63.47H80v-3H78V58.64h5.74v1.85H81.93v3H83.6V65.3H81.93v3l2-.49Zm7.55,1.56c.27,0,.33-.32.37-2.3a5.46,5.46,0,0,0,1.76.82C93.7,72.26,93.22,73,91.94,73H90.79c-1.54,0-1.9-.62-1.9-2.49V65.22H87.75c-.2,3.93-.81,6.5-4.67,7.88A5,5,0,0,0,82,71.57c3.34-1.12,3.71-3.07,3.85-6.35h-1.9V63.3h9.6v1.92H90.88v5.29c0,.58,0,.64.27.64Zm.92-10.66H84.59v-1.9h8.07Z" style="fill:#f6f5ee"/><path d="M59.9,27.58a.16.16,0,0,0,.07,0,21.54,21.54,0,0,0,2.41,0c1.25,0,2.5,0,3.76,0,0,.27-.19.29-.37.31a4,4,0,0,1-.6,0c-2.3,0-4.6,0-6.9,0a10.26,10.26,0,0,1-1.24,0c-.19,0-.41,0-.49-.25a1,1,0,0,0,.09-.63c0-4.66,0-9.33,0-14,.19-.14.43,0,.62-.11h1c.29.22.25.54.25.83q0,3.54,0,7.06c0,1.79,0,3.57,0,5.35,0,.89.09,1,.95,1.17A.86.86,0,0,1,59.9,27.58Z" style="fill:#dadfe9"/><path d="M59.9,27.58h-1c-.63,0-.67,0-.67-.7q0-7,0-13.95h1.62c0,1.08,0,2.16,0,3.23Z" style="fill:#bcc1d0"/><path d="M58.26,27.69H65.4a1.57,1.57,0,0,0,.74-.1,15,15,0,0,1,3.72-.53,5.9,5.9,0,0,1,5.36,4.8c.24,1.55.28,3.11.41,4.67.17,2,.32,4,.47,5.92.09,1.22.22,2.45.23,3.67a5.89,5.89,0,0,1-11.41,2.09c-.78-2.14-1.47-4.31-2.18-6.48a.52.52,0,0,0-.59-.43H53.92c0-.4.32-.33.55-.34.81,0,1.61,0,2.42,0S58,40.77,58,39.83c0-3.74,0-7.47,0-11.21C58,28.29,58,27.94,58.26,27.69Z" style="fill:#e7ebf3"/><path d="M58.26,27.69V40.51c0,.67,0,.7-.72.7h-3a1.11,1.11,0,0,0-.64.11l-2.13,6.39a5.89,5.89,0,0,1-8.59,3.54c-.16-.08-.29-.23-.49-.23s-.2-.22-.31-.32a6,6,0,0,1-2.17-5.42c.25-2.81.44-5.63.66-8.44.12-1.51.18-3,.38-4.52a5.74,5.74,0,0,1,7-5.1,38.3,38.3,0,0,0,7.32.45h1Z" style="fill:#fdfdfd"/><path d="M70.19,38.79a1.49,1.49,0,0,1-1.5,1.51,1.51,1.51,0,0,1,0-3A1.5,1.5,0,0,1,70.19,38.79Z" style="fill:#fdfdfd"/><path d="M68.71,31.41a1.48,1.48,0,0,1,1.48,1.51,1.5,1.5,0,0,1-1.47,1.49,1.53,1.53,0,0,1-1.52-1.5A1.51,1.51,0,0,1,68.71,31.41Z" style="fill:#fdfdfd"/><path d="M65.78,34.36a1.5,1.5,0,0,1,1.47,1.49,1.52,1.52,0,0,1-1.52,1.5,1.54,1.54,0,0,1-1.47-1.5A1.51,1.51,0,0,1,65.78,34.36Z" style="fill:#fdfdfd"/><path d="M73.13,35.85a1.48,1.48,0,1,1-3,0,1.48,1.48,0,1,1,3,0Z" style="fill:#fdfdfd"/><path d="M43.54,36c0-.46,0-.91,0-1.37,0-.28.09-.38.38-.38.69,0,1.38,0,2.07,0,.32,0,.44-.09.43-.43,0-.65,0-1.31,0-2,0-.34.07-.49.44-.47.91,0,1.82,0,2.73,0,.28,0,.39.08.38.37,0,.64,0,1.28,0,1.92,0,.42.07.6.54.57.64,0,1.28,0,1.92,0,.3,0,.42.08.41.4,0,.92,0,1.85,0,2.77,0,.29-.08.39-.37.38-.69,0-1.38,0-2.07,0-.34,0-.44.11-.43.43,0,.66,0,1.32,0,2,0,.34-.08.48-.45.48q-1.34,0-2.67,0c-.35,0-.44-.13-.43-.45,0-.66,0-1.31,0-2,0-.34-.08-.48-.45-.46-.64,0-1.28,0-1.91,0-.45,0-.55-.15-.52-.55S43.54,36.42,43.54,36Z" style="fill:#e4e4e4"/></svg>