<svg xmlns="http://www.w3.org/2000/svg" viewBox="0 0 44.95 44.95"><defs><style>.cls-1{fill:#f9cfcf;}.cls-2{fill:#ff5086;}</style></defs><g id="圖層_2" data-name="圖層 2"><g id="圖層_3" data-name="圖層 3"><circle class="cls-1" cx="22.48" cy="22.48" r="22.48"/><path class="cls-2" d="M34.9,15.1a10,10,0,0,1-1.94,2,.65.65,0,0,0-.29.58,14.92,14.92,0,0,1-7,13A14.21,14.21,0,0,1,17,32.85a14.51,14.51,0,0,1-6.75-2,1,1,0,0,1-.43-.32,10.65,10.65,0,0,0,7.6-2.16,5.41,5.41,0,0,1-4.88-3.66,5.17,5.17,0,0,0,2.25-.1c-2.65-.93-4.14-2.84-4.06-5.2a5.49,5.49,0,0,0,2.31.63,5.44,5.44,0,0,1-2.15-3.19,5.19,5.19,0,0,1,.58-3.8A15.45,15.45,0,0,0,14.66,16,14.77,14.77,0,0,0,22,18.51c.31,0,.29-.07.26-.3a5.2,5.2,0,0,1,4.12-6A5,5,0,0,1,31,13.49a.62.62,0,0,0,.66.18,11,11,0,0,0,2.93-1.19,5.32,5.32,0,0,1-2.25,2.88,11,11,0,0,0,2.39-.56c.12,0,.28-.22.38-.05S35,15,34.9,15.1Z"/></g></g></svg>