<svg xmlns="http://www.w3.org/2000/svg" viewBox="0 0 44.95 44.95"><defs><style>.cls-1{fill:#f9cfcf;}.cls-2{fill:#ff5086;}</style></defs><g id="圖層_2" data-name="圖層 2"><g id="圖層_3" data-name="圖層 3"><circle class="cls-1" cx="22.48" cy="22.48" r="22.48"/><path class="cls-2" d="M33,13.39a14.65,14.65,0,0,0-2.17-.28q-4.7-.31-9.41-.25a82,82,0,0,0-9,.42,3.51,3.51,0,0,0-3.22,2.91,25,25,0,0,0-.45,4.48,39.16,39.16,0,0,0,.38,7.8,3.5,3.5,0,0,0,2.79,3.1,12.36,12.36,0,0,0,1.36.19c3.08.29,6.17.32,9.27.34h.9a85.54,85.54,0,0,0,9.05-.43,3.46,3.46,0,0,0,3.21-2.9,25.49,25.49,0,0,0,.46-4.53,37.64,37.64,0,0,0-.4-7.79A3.48,3.48,0,0,0,33,13.39ZM19.76,26.59V18.37l7.14,4.11Z"/></g></g></svg>